<svg class="svg-icon" style="width: 1em;height: 1em;vertical-align: middle;fill: currentColor;overflow: hidden;" viewBox="0 0 1024 1024" version="1.1" xmlns="http://www.w3.org/2000/svg"><path d="M256 704l271.552 162.944a32 32 0 0 0 48.448-27.52V184.576a32 32 0 0 0-48.448-27.456L256 320H134.72a38.4 38.4 0 0 0-38.4 38.4L96 665.6a38.4 38.4 0 0 0 38.4 38.4H256z m64-347.776l192-115.2v541.952l-192-115.2V356.224zM256 640H160l0.256-256H256v256zM864.96 366.528a383.36 383.36 0 0 0-89.216-124.544l43.648-46.72a447.36 447.36 0 0 1 104.064 145.28c24.128 54.4 36.48 112.64 36.48 171.456 0 58.88-12.352 117.12-36.48 171.456-24.128 54.4-59.52 103.68-104.064 145.28l-43.648-46.72a383.36 383.36 0 0 0 89.216-124.544C885.44 611.2 896 561.792 896 512s-10.496-99.2-31.04-145.472z" fill="#000000" fill-opacity=".9" /><path d="M736 512c0-55.872-23.04-112.192-68.672-157.056l44.864-45.632c57.28 56.256 87.872 128.832 87.808 202.752-0.064 73.92-30.72 146.496-88.128 202.688l-44.8-45.76c45.696-44.8 68.864-101.12 68.928-156.992z" fill="#000000" fill-opacity=".9" /></svg>